<?xml version="1.0" encoding="iso-8859-1"?>
<!-- Generator: Adobe Illustrator 19.0.1, SVG Export Plug-In . SVG Version: 6.00 Build 0)  -->
<svg version="1.1" xmlns="http://www.w3.org/2000/svg" xmlns:xlink="http://www.w3.org/1999/xlink" x="0px" y="0px"
	 viewBox="0 0 128 128" style="enable-background:new 0 0 128 128;" xml:space="preserve">
<g id="_x31_4">
	<path id="icon_15_" style="fill:#161616;" d="M34.113,113.001c0-3.655,2.963-6.619,6.619-6.619s6.619,2.963,6.619,6.619
		c0,3.655-2.963,6.619-6.619,6.619S34.113,116.656,34.113,113.001z M63.267,119.62c3.655,0,6.619-2.963,6.619-6.619
		c0-3.655-2.963-6.619-6.619-6.619s-6.619,2.963-6.619,6.619C56.648,116.656,59.611,119.62,63.267,119.62z M85.802,119.62
		c3.655,0,6.619-2.963,6.619-6.619c0-3.655-2.963-6.619-6.619-6.619c-3.655,0-6.619,2.963-6.619,6.619
		C79.183,116.656,82.146,119.62,85.802,119.62z M110.493,49.331H76.591v-5.645h9.988c10.694,0,19.381-8.703,19.381-19.397V23.05
		c0-9.346-6.649-17.186-15.461-19.005V1.709C90.5,0.768,89.732,0,88.791,0h-12.56c-0.941,0-1.725,0.768-1.725,1.709v1.944H53.133
		V1.709C53.133,0.768,52.349,0,51.409,0h-12.56c-0.941,0-1.709,0.768-1.709,1.709v2.274c-9.001,1.678-15.837,9.596-15.837,19.068
		v1.239c0,10.694,8.703,19.397,19.397,19.397h10.71v5.645H17.492c-2.023,0-3.669,1.646-3.669,3.685v16.37
		c0,2.023,1.646,3.669,3.669,3.669l0.063,22.423h13.815V84.487h4.422v4.83c0,2.023,1.662,3.685,3.685,3.685h5.128v4.986h-10.02
		c-8.264,0-15.006,6.743-15.006,15.006c0,8.279,6.743,15.006,15.006,15.006H92.68c8.279,0,15.006-6.727,15.006-15.006
		c0-8.264-6.727-15.006-15.006-15.006h-9.267v-4.986h5.112c2.023,0,3.669-1.662,3.669-3.685v-4.83h4.422v10.992h13.83V73.055h0.047
		c2.038,0,3.685-1.646,3.685-3.669v-16.37C114.178,50.977,112.531,49.331,110.493,49.331z M26.665,90.774h-4.406V73.055h4.406
		V90.774z M26.665,68.351h-8.138V54.035h8.138V68.351z M40.699,38.982c-8.107,0-14.693-6.586-14.693-14.693V23.05
		c0-8.107,6.586-14.693,14.693-14.693H86.58c8.091,0,14.677,6.586,14.677,14.693v1.239c0,8.107-6.586,14.693-14.677,14.693H40.699z
		 M71.887,43.686v5.645H56.113v-5.645H71.887z M92.68,102.692c5.676,0,10.302,4.626,10.302,10.302
		c0,5.692-4.626,10.302-10.302,10.302H34.583c-5.676,0-10.302-4.61-10.302-10.302c0-5.676,4.626-10.302,10.302-10.302H92.68z
		 M49.307,97.987v-4.986h29.401v4.986H49.307z M87.489,88.297H40.495v-3.81h46.994V88.297z M96.615,79.782H31.369V54.035h65.247
		V79.782z M105.742,90.774h-4.422V73.055h4.422V90.774z M109.473,68.351h-8.154V54.035h8.154V68.351z M41.785,36.032
		c-7.012,0-12.717-5.706-12.717-12.717s5.706-12.717,12.717-12.717s12.717,5.706,12.717,12.717S48.797,36.032,41.785,36.032z
		 M41.785,15.301c-4.418,0-8.013,3.595-8.013,8.013s3.595,8.013,8.013,8.013s8.013-3.595,8.013-8.013S46.203,15.301,41.785,15.301z
		 M85.853,36.032c-7.012,0-12.717-5.706-12.717-12.717s5.706-12.717,12.717-12.717S98.57,16.303,98.57,23.314
		S92.865,36.032,85.853,36.032z M85.853,15.301c-4.418,0-8.013,3.595-8.013,8.013s3.595,8.013,8.013,8.013s8.013-3.595,8.013-8.013
		S90.271,15.301,85.853,15.301z M82.377,23.315c0-2.044,1.657-3.702,3.702-3.702c2.044,0,3.702,1.657,3.702,3.702
		s-1.657,3.702-3.702,3.702C84.035,27.016,82.377,25.359,82.377,23.315z M41.558,27.016c2.044,0,3.702-1.657,3.702-3.702
		s-1.657-3.702-3.702-3.702s-3.702,1.657-3.702,3.702S39.514,27.016,41.558,27.016z M71.163,35.645v-2.543
		c0-0.699-0.572-1.271-1.271-1.271H57.745c-0.699,0-1.271,0.572-1.271,1.271v2.543c0,0.699,0.572,1.271,1.271,1.271h12.147
		C70.591,36.916,71.163,36.344,71.163,35.645z"/>
</g>
<g id="Layer_1">
</g>
</svg>
