<svg xmlns="http://www.w3.org/2000/svg" viewBox="0 0 100.35 128"><defs><style>.cls-1{fill:#fff;}</style></defs><title>Asset 2</title><g id="Layer_2" data-name="Layer 2"><g id="Layer_1-2" data-name="Layer 1"><g id="_14" data-name="14"><path id="icon" class="cls-1" d="M20.29,113a6.62,6.62,0,1,1,6.62,6.62A6.62,6.62,0,0,1,20.29,113Zm29.15,6.62A6.62,6.62,0,1,0,42.83,113,6.62,6.62,0,0,0,49.44,119.62Zm22.54,0A6.62,6.62,0,1,0,65.36,113,6.62,6.62,0,0,0,72,119.62ZM96.67,49.33H62.77V43.69h10a19.41,19.41,0,0,0,19.38-19.4V23.05a19.43,19.43,0,0,0-15.46-19V1.71A1.72,1.72,0,0,0,75,0H62.41a1.73,1.73,0,0,0-1.73,1.71V3.65H39.31V1.71A1.72,1.72,0,0,0,37.59,0H25a1.71,1.71,0,0,0-1.71,1.71V4A19.44,19.44,0,0,0,7.48,23.05v1.24a19.42,19.42,0,0,0,19.4,19.4H37.59v5.64H3.67A3.68,3.68,0,0,0,0,53V69.39a3.68,3.68,0,0,0,3.67,3.67l.06,22.42H17.55v-11H22v4.83A3.7,3.7,0,0,0,25.65,93h5.13v5h-10a15,15,0,0,0,0,30h58.1a15,15,0,0,0,0-30H69.59V93H74.7a3.68,3.68,0,0,0,3.67-3.68V84.49h4.42v11H96.62V73.06h0a3.67,3.67,0,0,0,3.68-3.67V53A3.67,3.67,0,0,0,96.67,49.33ZM12.84,90.77H8.44V73.06h4.4Zm0-22.42H4.7V54h8.14ZM26.88,39a14.7,14.7,0,0,1-14.7-14.69V23.05A14.7,14.7,0,0,1,26.88,8.36H72.76A14.69,14.69,0,0,1,87.43,23.05v1.24A14.69,14.69,0,0,1,72.76,39Zm31.18,4.71v5.64H42.29V43.69Zm20.8,59a10.31,10.31,0,0,1,0,20.61H20.76a10.31,10.31,0,0,1,0-20.61ZM35.48,98V93h29.4v5ZM73.67,88.3h-47V84.49h47Zm9.12-8.52H17.55V54H82.79V79.78Zm9.13,11H87.5V73.06h4.42Zm3.73-22.42H87.5V54h8.15ZM28,36A12.72,12.72,0,1,1,40.68,23.32,12.73,12.73,0,0,1,28,36ZM28,15.3a8,8,0,1,0,8,8A8,8,0,0,0,28,15.3ZM72,36A12.72,12.72,0,1,1,84.75,23.31,12.73,12.73,0,0,1,72,36ZM72,15.3a8,8,0,1,0,8,8A8,8,0,0,0,72,15.3Zm-3.48,8A3.71,3.71,0,1,1,72.26,27,3.71,3.71,0,0,1,68.55,23.32ZM27.73,27A3.71,3.71,0,1,0,24,23.31,3.71,3.71,0,0,0,27.73,27Zm29.61,8.63V33.1a1.27,1.27,0,0,0-1.27-1.27H43.92a1.27,1.27,0,0,0-1.27,1.27v2.55a1.28,1.28,0,0,0,1.27,1.27H56.07A1.28,1.28,0,0,0,57.34,35.65Z"/></g></g></g></svg>