<?xml version="1.0" encoding="utf-8"?>
<!-- Generator: Adobe Illustrator 22.0.1, SVG Export Plug-In . SVG Version: 6.00 Build 0)  -->
<svg version="1.1" id="Layer_1" xmlns="http://www.w3.org/2000/svg" xmlns:xlink="http://www.w3.org/1999/xlink" x="0px" y="0px"
	 viewBox="0 0 128 128" style="enable-background:new 0 0 128 128;" xml:space="preserve">
<style type="text/css">
	.st0{fill:#FFFFFF;}
</style>
<g id="_x31_4">
	<path id="icon_15_" class="st0" d="M34.1,113c0-3.7,3-6.6,6.6-6.6s6.6,3,6.6,6.6c0,3.7-3,6.6-6.6,6.6S34.1,116.7,34.1,113z
		 M63.3,119.6c3.7,0,6.6-3,6.6-6.6c0-3.7-3-6.6-6.6-6.6s-6.6,3-6.6,6.6C56.6,116.7,59.6,119.6,63.3,119.6z M85.8,119.6
		c3.7,0,6.6-3,6.6-6.6c0-3.7-3-6.6-6.6-6.6c-3.7,0-6.6,3-6.6,6.6C79.2,116.7,82.1,119.6,85.8,119.6z M110.5,49.3H76.6v-5.6h10
		c10.7,0,19.4-8.7,19.4-19.4V23c0-9.3-6.6-17.2-15.5-19V1.7c0-0.9-0.8-1.7-1.7-1.7H76.2c-0.9,0-1.7,0.8-1.7,1.7v1.9H53.1V1.7
		c0-0.9-0.8-1.7-1.7-1.7H38.8c-0.9,0-1.7,0.8-1.7,1.7V4c-9,1.7-15.8,9.6-15.8,19.1v1.2c0,10.7,8.7,19.4,19.4,19.4h10.7v5.6H17.5
		c-2,0-3.7,1.6-3.7,3.7v16.4c0,2,1.6,3.7,3.7,3.7l0.1,22.4h13.8v-11h4.4v4.8c0,2,1.7,3.7,3.7,3.7h5.1v5h-10c-8.3,0-15,6.7-15,15
		c0,8.3,6.7,15,15,15h58.1c8.3,0,15-6.7,15-15c0-8.3-6.7-15-15-15h-9.3v-5h5.1c2,0,3.7-1.7,3.7-3.7v-4.8h4.4v11h13.8V73.1h0
		c2,0,3.7-1.6,3.7-3.7V53C114.2,51,112.5,49.3,110.5,49.3z M26.7,90.8h-4.4V73.1h4.4V90.8z M26.7,68.4h-8.1V54h8.1V68.4z M40.7,39
		C32.6,39,26,32.4,26,24.3V23c0-8.1,6.6-14.7,14.7-14.7h45.9c8.1,0,14.7,6.6,14.7,14.7v1.2c0,8.1-6.6,14.7-14.7,14.7H40.7z
		 M71.9,43.7v5.6H56.1v-5.6H71.9z M92.7,102.7c5.7,0,10.3,4.6,10.3,10.3c0,5.7-4.6,10.3-10.3,10.3H34.6c-5.7,0-10.3-4.6-10.3-10.3
		c0-5.7,4.6-10.3,10.3-10.3H92.7z M49.3,98v-5h29.4v5H49.3z M87.5,88.3h-47v-3.8h47V88.3z M96.6,79.8H31.4V54h65.2L96.6,79.8
		L96.6,79.8z M105.7,90.8h-4.4V73.1h4.4V90.8z M109.5,68.4h-8.2V54h8.2V68.4z M41.8,36c-7,0-12.7-5.7-12.7-12.7s5.7-12.7,12.7-12.7
		s12.7,5.7,12.7,12.7S48.8,36,41.8,36z M41.8,15.3c-4.4,0-8,3.6-8,8s3.6,8,8,8s8-3.6,8-8S46.2,15.3,41.8,15.3z M85.9,36
		c-7,0-12.7-5.7-12.7-12.7s5.7-12.7,12.7-12.7s12.7,5.7,12.7,12.7S92.9,36,85.9,36z M85.9,15.3c-4.4,0-8,3.6-8,8s3.6,8,8,8
		s8-3.6,8-8S90.3,15.3,85.9,15.3z M82.4,23.3c0-2,1.7-3.7,3.7-3.7c2,0,3.7,1.7,3.7,3.7S88.1,27,86.1,27C84,27,82.4,25.4,82.4,23.3z
		 M41.6,27c2,0,3.7-1.7,3.7-3.7s-1.7-3.7-3.7-3.7s-3.7,1.7-3.7,3.7S39.5,27,41.6,27z M71.2,35.6v-2.5c0-0.7-0.6-1.3-1.3-1.3H57.7
		c-0.7,0-1.3,0.6-1.3,1.3v2.5c0,0.7,0.6,1.3,1.3,1.3h12.1C70.6,36.9,71.2,36.3,71.2,35.6z"/>
</g>
<g id="Layer_1_1_">
</g>
</svg>
